<?xml version="1.0" standalone="no"?>
<!DOCTYPE svg PUBLIC "-//W3C//DTD SVG 20010904//EN"
 "http://www.w3.org/TR/2001/REC-SVG-20010904/DTD/svg10.dtd">
<svg version="1.0" xmlns="http://www.w3.org/2000/svg"
 width="500.000000pt" height="500.000000pt" viewBox="0 0 500.000000 500.000000"
 preserveAspectRatio="xMidYMid meet">
<metadata>
Created by potrace 1.14, written by Peter Selinger 2001-2017
</metadata>
<g transform="translate(0.000000,500.000000) scale(0.100000,-0.100000)"
fill="#000000" stroke="none">
<path d="M2420 4497 c-3 -3 -30 -7 -60 -11 -398 -41 -808 -307 -1028 -668 -51
-83 -108 -204 -130 -274 l-16 -54 -56 -1 c-30 -1 -64 -3 -75 -4 -11 -2 -33 -5
-48 -6 -75 -9 -97 -100 -92 -394 3 -216 12 -276 47 -312 11 -11 48 -19 111
-26 l95 -11 18 -65 c24 -89 73 -203 133 -306 133 -230 347 -430 597 -558 122
-62 218 -93 409 -132 68 -13 295 -17 384 -6 166 21 335 73 481 149 77 40 198
116 210 132 3 3 16 14 30 23 75 52 242 237 313 349 69 109 141 271 167 379 12
46 12 47 61 53 42 6 51 11 65 38 54 104 59 541 8 640 -14 27 -62 48 -114 48
-22 0 -29 10 -60 97 -39 109 -120 258 -188 348 -72 95 -209 231 -302 300 -235
174 -489 261 -795 272 -88 3 -162 3 -165 0z m193 -147 c63 -68 119 -197 164
-374 23 -92 64 -317 58 -324 -1 -1 -55 -9 -121 -18 -127 -17 -287 -14 -401 7
-51 9 -63 15 -63 30 0 25 47 264 60 309 6 19 13 42 15 50 19 84 108 290 125
290 5 0 12 9 15 20 8 24 51 49 86 50 19 0 38 -12 62 -40z m-301 -51 c-16 -30
-38 -80 -50 -111 -36 -97 -93 -335 -108 -455 l-6 -52 -66 25 c-77 29 -228 107
-267 138 l-28 23 54 81 c109 165 235 286 373 358 63 34 117 54 124 49 2 -2
-10 -27 -26 -56z m512 32 c174 -79 321 -218 443 -419 l32 -53 -52 -33 c-60
-38 -206 -109 -278 -135 l-26 -9 -12 81 c-29 190 -89 402 -147 520 -19 37 -34
70 -34 73 0 8 10 4 74 -25z m-905 -108 c-8 -10 -25 -29 -39 -44 -14 -14 -42
-47 -62 -75 -21 -27 -41 -53 -45 -59 -5 -5 -14 -21 -21 -35 -40 -76 -43 -80
-60 -71 -9 5 -30 23 -46 40 l-29 30 33 31 c17 16 34 30 37 30 3 0 13 8 22 18
17 19 207 152 218 152 3 0 -1 -8 -8 -17z m1333 -39 c81 -57 129 -94 175 -138
l43 -40 -40 -40 c-22 -21 -42 -37 -43 -35 -2 2 -29 42 -59 89 -53 82 -68 101
-147 183 -34 37 -35 38 -9 28 15 -6 51 -27 80 -47z m-1616 -338 c16 -12 16
-17 -11 -82 -15 -38 -40 -112 -55 -164 l-28 -95 -121 -3 -121 -4 19 50 c45
114 101 214 174 314 l49 66 38 -34 c21 -20 46 -41 56 -48z m1975 -11 c58 -80
137 -226 164 -304 l15 -44 -117 6 c-65 4 -121 7 -124 7 -3 0 -11 26 -18 58 -7
31 -31 106 -53 165 l-41 109 49 43 c27 24 54 43 59 41 6 -1 35 -38 66 -81z
m-1828 -98 c49 -36 204 -112 280 -137 65 -21 67 -22 67 -56 l0 -34 -239 0
-239 0 34 103 c33 98 53 147 61 147 3 0 19 -11 36 -23z m1572 6 c19 -48 75
-219 75 -231 0 -11 -31 -13 -177 -8 -98 2 -204 5 -235 5 l-58 1 0 34 c0 33 2
34 78 61 80 28 254 115 279 141 19 19 29 18 38 -3z m-1000 -213 c77 -10 345
-10 393 0 99 21 102 21 102 0 0 -22 9 -22 -275 -22 -338 -1 -345 0 -345 23 0
18 4 20 33 13 17 -4 59 -10 92 -14z m830 -88 l140 -2 1 -325 1 -324 -196 -3
c-262 -5 -1713 1 -1776 6 -27 2 -105 7 -171 10 -67 3 -135 9 -152 12 -33 7
-35 11 -48 104 -7 49 -7 353 -1 385 3 11 8 39 12 62 6 40 8 42 48 47 81 10
195 16 462 22 149 3 271 7 272 8 3 2 1205 0 1408 -2z m619 -730 c-25 -105
-165 -372 -229 -435 -8 -9 -15 -20 -15 -26 0 -22 -28 -10 -77 34 l-51 46 18
37 c33 69 73 195 104 334 6 27 8 27 94 30 48 2 104 4 125 5 36 2 37 1 31 -25z
m-2264 -39 c13 -67 75 -265 96 -305 8 -15 14 -31 14 -36 0 -4 -24 -29 -54 -55
l-54 -46 -47 64 c-79 108 -106 158 -175 320 -5 11 -13 34 -18 50 -6 17 -13 38
-17 48 -7 16 3 17 118 17 l126 0 11 -57z m577 43 c2 -1 4 -33 5 -69 l3 -68
-65 -23 c-87 -31 -207 -91 -286 -143 -15 -9 -29 -12 -34 -7 -11 12 -79 219
-86 264 -3 19 -8 38 -10 42 -2 3 0 8 6 10 11 3 463 -2 467 -6z m1326 -21 c-7
-37 -81 -265 -92 -284 -7 -11 -20 -7 -67 22 -81 48 -165 89 -252 122 l-73 27
3 66 3 67 140 3 c77 1 151 3 165 5 14 1 60 2 102 2 l77 1 -6 -31z m-588 -28
c-3 -28 -7 -52 -9 -54 -1 -2 -27 1 -57 7 -30 5 -67 12 -84 15 -59 10 -291 5
-375 -9 -47 -8 -86 -13 -88 -11 -1 1 -5 25 -8 52 l-6 49 316 1 316 1 -5 -51z
m-140 -148 c101 -13 124 -19 120 -32 -2 -7 -7 -30 -10 -52 -40 -283 -125 -531
-213 -624 -33 -35 -45 -42 -71 -39 -110 13 -226 293 -285 690 l-6 37 53 10
c99 20 298 24 412 10z m-499 -394 c29 -110 75 -232 106 -283 11 -18 18 -35 15
-38 -20 -20 -237 111 -327 198 -59 56 -150 174 -193 248 l-26 46 54 32 c92 55
163 90 233 116 l67 24 22 -121 c12 -67 34 -166 49 -222z m931 256 c54 -28 109
-60 123 -70 l24 -19 -39 -64 c-106 -174 -303 -354 -436 -399 -19 -7 -40 -16
-47 -22 -26 -20 -22 3 11 69 42 85 79 196 111 334 34 149 42 189 45 239 1 20
2 20 55 1 30 -10 99 -41 153 -69z m295 -207 l27 -21 -42 -40 c-40 -38 -163
-131 -217 -164 -58 -36 -63 -28 -14 23 68 72 115 133 149 193 15 28 30 54 33
59 3 5 12 1 21 -10 9 -11 28 -29 43 -40z m-1669 -51 c36 -54 86 -118 111 -143
25 -25 45 -48 46 -53 1 -20 -167 92 -240 160 -19 18 -44 39 -55 47 -19 14 -19
15 20 50 22 19 43 35 46 36 3 0 35 -44 72 -97z"/>
<path d="M1127 3254 c-15 -15 -4 -54 56 -194 55 -128 65 -145 86 -145 27 0 29
2 72 105 17 41 35 79 39 83 4 5 25 -36 47 -90 31 -77 44 -99 60 -101 13 -2 26
4 31 15 23 43 104 304 99 318 -8 18 -41 20 -54 3 -5 -7 -20 -47 -33 -88 -43
-139 -37 -137 -79 -31 -39 96 -63 124 -86 100 -7 -8 -29 -56 -51 -107 -44
-105 -37 -108 -100 38 -30 69 -46 96 -60 98 -11 2 -23 0 -27 -4z"/>
<path d="M1694 3245 c-8 -20 117 -326 135 -333 26 -10 45 15 81 102 19 49 40
87 45 86 6 -1 26 -43 46 -94 27 -67 42 -92 56 -94 11 -2 24 3 30 10 17 21 105
296 101 315 -2 11 -12 18 -28 18 -22 0 -28 -10 -57 -95 -18 -52 -35 -102 -38
-110 -4 -8 -21 23 -42 75 -38 97 -54 121 -75 112 -8 -2 -34 -50 -58 -106 -24
-56 -46 -98 -50 -94 -4 4 -24 51 -45 103 -21 52 -43 101 -48 108 -13 17 -46
15 -53 -3z"/>
<path d="M2266 3243 c-3 -10 23 -87 59 -173 55 -135 67 -155 88 -158 21 -3 27
5 47 50 13 29 30 69 38 88 9 19 16 38 16 43 1 12 21 9 28 -5 3 -7 21 -50 38
-95 28 -72 35 -83 56 -83 13 0 24 2 24 3 0 2 24 74 54 159 55 159 58 188 16
188 -19 0 -36 -36 -76 -163 -10 -31 -21 -54 -25 -50 -4 5 -21 47 -39 95 -18
48 -39 89 -47 92 -22 9 -41 -4 -54 -37 -7 -18 -23 -56 -36 -85 -12 -29 -23
-57 -23 -62 0 -5 -4 -11 -9 -14 -5 -3 -28 40 -51 97 -23 56 -47 108 -52 115
-15 18 -46 15 -52 -5z"/>
<path d="M728 1203 c-10 -3 -18 -6 -18 -8 0 -8 122 -291 130 -300 4 -5 9 -14
9 -20 3 -23 26 -75 33 -75 10 0 15 12 63 145 20 55 40 104 45 108 4 5 26 -40
49 -100 23 -59 46 -118 51 -130 10 -24 30 -31 30 -12 0 6 6 25 14 42 41 89 74
177 68 177 -4 0 -2 4 3 8 6 4 24 39 40 77 16 39 33 73 38 76 12 9 -60 17 -74
9 -6 -4 -12 -13 -13 -21 -2 -8 -9 -27 -15 -44 -7 -16 -14 -34 -15 -40 -2 -5
-13 -32 -24 -58 -12 -27 -22 -53 -22 -57 0 -22 -21 -19 -30 4 -6 14 -14 36
-19 49 -5 12 -10 27 -11 32 -1 6 -7 19 -13 30 -6 11 -12 22 -12 25 -9 37 -19
60 -26 60 -5 0 -6 7 -3 15 4 9 0 15 -8 15 -8 0 -20 -17 -27 -37 -8 -21 -22
-58 -33 -81 -11 -24 -20 -53 -21 -63 -1 -10 -4 -19 -8 -19 -4 0 -10 -12 -13
-26 -4 -15 -11 -23 -15 -18 -5 5 -28 59 -51 119 -23 61 -43 111 -45 113 -5 6
-41 8 -57 5z"/>
<path d="M1335 1200 l-30 -5 -1 -192 0 -191 119 -1 118 -2 -3 33 -3 33 -72 0
c-79 0 -84 3 -88 39 -4 30 3 33 83 30 63 -2 63 -2 60 25 -3 25 -6 26 -66 28
-35 1 -65 3 -67 5 -4 4 -8 83 -6 116 1 21 5 22 82 22 l80 0 -3 32 -3 32 -85 1
c-47 0 -99 -2 -115 -5z"/>
<path d="M1590 1202 c-6 -2 -10 -76 -10 -198 l0 -194 90 0 c139 0 181 25 182
111 0 30 -6 47 -25 67 l-26 27 21 25 c16 19 19 35 16 72 -5 52 -24 76 -65 84
-33 6 -168 11 -183 6z m166 -70 c6 -4 13 -17 17 -30 9 -36 -24 -62 -78 -62
l-45 0 0 50 0 50 48 0 c26 0 52 -4 58 -8z m-6 -155 c0 3 7 0 15 -7 18 -15 20
-64 2 -78 -6 -6 -35 -12 -62 -14 l-50 -3 -3 52 c-3 58 6 65 66 52 17 -4 32 -5
32 -2z"/>
<path d="M1900 1010 l0 -200 35 0 35 0 0 111 0 110 50 -65 c28 -36 50 -70 50
-76 0 -28 31 -3 83 67 l57 77 0 -112 0 -112 35 0 35 0 0 200 c0 156 -3 200
-13 200 -7 0 -48 -49 -92 -109 -44 -61 -82 -110 -85 -110 -5 0 -115 145 -145
192 -9 15 -24 27 -31 27 -11 0 -14 -36 -14 -200z"/>
<path d="M2463 1193 c-3 -10 -40 -94 -81 -188 -41 -93 -76 -176 -79 -182 -4
-9 7 -13 34 -13 34 0 41 4 55 33 l15 32 79 -1 c76 -1 78 -2 92 -31 14 -29 18
-31 96 -37 46 -4 89 -4 98 -1 36 14 43 53 43 229 l0 171 -35 0 -35 0 -1 -152
c-1 -84 -4 -159 -7 -168 -4 -8 -18 -15 -35 -15 -15 0 -33 -5 -38 -10 -7 -7
-36 47 -89 170 -76 172 -97 204 -112 163z m71 -239 c6 -21 4 -22 -49 -21 -30
1 -55 4 -55 8 0 4 7 24 16 45 9 22 21 50 26 64 10 24 11 24 33 -25 12 -27 25
-60 29 -71z"/>
<path d="M2920 1203 c-30 -12 -60 -58 -60 -92 0 -52 35 -94 112 -136 54 -29
68 -41 68 -59 0 -36 -23 -48 -77 -43 -26 3 -56 8 -66 12 -22 9 -46 -20 -40
-46 4 -13 22 -22 61 -30 130 -27 214 23 198 120 -7 44 -37 75 -109 113 -61 33
-81 56 -71 82 9 24 48 30 100 17 26 -7 48 -11 49 -9 2 2 5 16 7 32 2 24 -2 31
-22 37 -30 8 -129 10 -150 2z"/>
<path d="M3134 1201 c-2 -2 -4 -17 -4 -33 0 -27 2 -28 45 -28 l45 0 0 -165 0
-165 40 0 40 0 -3 165 -2 165 48 0 48 0 -3 32 -3 33 -123 0 c-68 0 -126 -2
-128 -4z"/>
<path d="M3522 1197 c-154 -58 -163 -297 -14 -376 37 -20 138 -23 180 -5 83
34 122 97 122 194 0 121 -66 190 -188 196 -39 2 -81 -2 -100 -9z m168 -79 c36
-28 49 -57 50 -106 0 -64 -30 -111 -83 -131 -111 -42 -209 51 -177 169 23 86
138 123 210 68z"/>
<path d="M3867 1200 c-9 -4 -12 -56 -12 -197 l0 -193 38 0 37 0 0 66 0 65 41
-3 c38 -3 42 -6 62 -53 12 -27 27 -56 33 -62 12 -12 84 -19 84 -8 0 9 -64 120
-72 126 -5 3 6 18 24 32 29 24 32 34 36 90 4 57 1 66 -23 95 -15 19 -39 34
-58 37 -45 7 -175 11 -190 5z m179 -77 c53 -49 10 -123 -71 -123 l-45 0 0 70
0 70 48 0 c33 0 55 -6 68 -17z"/>
<path d="M4202 1202 c-9 -3 -12 -59 -12 -198 l0 -194 35 0 34 0 3 194 3 194
-26 4 c-14 2 -31 2 -37 0z"/>
</g>
</svg>
