<?xml version="1.0" standalone="no"?>
<!DOCTYPE svg PUBLIC "-//W3C//DTD SVG 20010904//EN"
 "http://www.w3.org/TR/2001/REC-SVG-20010904/DTD/svg10.dtd">
<svg version="1.0" xmlns="http://www.w3.org/2000/svg"
 width="500.000000pt" height="500.000000pt" viewBox="0 0 500.000000 500.000000"
 preserveAspectRatio="xMidYMid meet">
<metadata>
Created by potrace 1.14, written by Peter Selinger 2001-2017
</metadata>
<g transform="translate(0.000000,500.000000) scale(0.100000,-0.100000)"
fill="#000000" stroke="none">
<path d="M2405 4683 c-183 -16 -436 -70 -577 -124 -446 -170 -824 -466 -1079
-847 -82 -122 -196 -349 -243 -482 l-34 -95 -134 -12 c-74 -7 -152 -18 -173
-25 -81 -27 -105 -125 -112 -465 -8 -340 16 -542 69 -600 25 -26 90 -41 223
-51 l97 -7 47 -145 c150 -455 421 -827 806 -1107 107 -78 198 -130 340 -198
196 -93 367 -147 590 -186 107 -19 168 -23 340 -23 217 0 314 10 505 55 300
69 625 227 865 420 367 295 625 685 750 1136 l17 62 47 6 c111 15 126 29 155
140 40 162 53 589 23 768 -28 157 -58 193 -177 205 l-75 7 -31 90 c-130 380
-369 724 -688 990 -171 143 -467 307 -683 378 -277 92 -604 133 -868 110z
m275 -220 c113 -117 216 -380 290 -738 30 -143 58 -335 51 -340 -31 -18 -214
-38 -398 -42 -202 -5 -278 0 -440 28 -63 11 -63 11 -63 44 0 50 46 291 86 453
71 288 165 503 260 600 50 50 55 52 105 52 51 0 55 -2 109 -57z m-444 -40
c-103 -184 -199 -502 -257 -856 -21 -129 -24 -137 -43 -131 -115 34 -337 140
-472 225 l-65 41 32 57 c141 251 342 465 564 601 68 42 237 119 262 120 7 0
-2 -25 -21 -57z m732 27 c274 -106 541 -350 727 -664 25 -42 45 -78 45 -80 0
-8 -126 -85 -225 -137 -92 -48 -304 -139 -325 -139 -3 0 -11 39 -17 88 -42
307 -131 627 -231 832 -31 63 -58 118 -60 123 -6 11 4 9 86 -23z m-1404 -242
c-83 -87 -175 -210 -245 -328 -23 -38 -45 -70 -49 -70 -4 0 -36 27 -71 60
l-64 60 75 70 c41 39 114 99 162 133 108 76 259 169 266 162 3 -2 -31 -42 -74
-87z m2055 27 c120 -74 231 -157 316 -238 l70 -65 -60 -61 c-33 -34 -64 -61
-70 -61 -5 0 -29 34 -52 74 -53 93 -170 248 -259 345 -38 41 -62 72 -53 69 9
-4 58 -32 108 -63z m-2447 -555 l29 -25 -29 -65 c-39 -84 -93 -242 -122 -351
l-22 -86 -185 -7 c-102 -4 -188 -4 -191 -1 -8 7 44 135 100 249 62 124 129
232 208 336 l61 81 61 -53 c33 -29 74 -64 90 -78z m3089 -64 c84 -126 170
-294 213 -413 l26 -73 -93 1 c-50 1 -137 4 -191 8 l-100 6 -21 85 c-28 110
-81 268 -117 348 -28 64 -34 92 -20 92 4 0 41 31 82 70 l75 69 34 -37 c18 -20
69 -90 112 -156z m-2659 -215 c76 -38 182 -83 237 -102 l100 -33 -6 -51 c-3
-27 -6 -51 -7 -52 -1 -1 -165 -3 -364 -5 -329 -3 -362 -2 -362 13 0 31 57 204
119 362 l11 27 67 -46 c38 -25 130 -76 205 -113z m2252 52 c30 -80 96 -286 96
-300 0 -6 -481 -3 -612 4 l-128 6 0 51 0 51 118 44 c137 51 309 135 402 196
36 24 70 44 76 44 6 1 28 -43 48 -96z m-1589 -257 c67 -11 169 -16 310 -16
192 0 264 6 438 36 36 6 37 6 37 -25 l0 -31 -480 0 -480 0 0 31 c0 36 -21 35
175 5z m1378 -143 l137 -6 0 -497 0 -498 -467 -7 c-933 -15 -2514 3 -2949 35
-174 12 -178 14 -193 87 -40 198 -34 670 10 809 8 25 17 33 42 38 58 10 348
27 587 35 293 10 2647 13 2833 4z m679 -70 c62 -28 115 -77 146 -137 22 -43
26 -64 27 -131 0 -67 -4 -89 -27 -135 -25 -51 -26 -56 -11 -72 15 -17 14 -20
-13 -49 -46 -49 -64 -55 -83 -30 -16 21 -18 21 -54 6 -21 -8 -66 -15 -105 -15
-158 0 -278 112 -290 271 -6 86 16 152 70 214 86 98 223 129 340 78z m274
-668 c46 -55 84 -108 84 -117 0 -21 -42 -51 -61 -43 -23 10 -179 202 -191 235
-8 25 -7 34 7 50 17 19 18 19 47 -3 17 -12 68 -67 114 -122z m-66 -344 c0 -19
-54 -173 -97 -274 -49 -118 -137 -270 -228 -396 -92 -128 -81 -126 -175 -40
-44 41 -80 79 -80 86 0 6 13 40 29 76 41 91 108 300 136 424 13 58 25 106 27
108 2 2 87 8 188 13 102 5 188 10 193 10 4 1 7 -2 7 -7z m-3502 -120 c27 -121
90 -321 138 -435 l34 -80 -38 -30 c-20 -17 -58 -50 -83 -73 -25 -24 -49 -43
-53 -43 -10 0 -140 180 -194 271 -28 47 -72 128 -96 180 -42 90 -116 288 -116
312 0 9 51 11 192 7 l193 -5 23 -104z m2908 -53 c-35 -128 -109 -335 -125
-351 -4 -4 -28 5 -52 21 -111 75 -336 184 -481 234 l-68 23 1 45 c1 25 4 74 8
110 l6 65 370 5 c324 4 370 3 373 -10 1 -8 -13 -72 -32 -142z m-2243 145 l225
-6 7 -71 c3 -39 8 -88 11 -108 4 -28 2 -38 -8 -38 -25 0 -241 -86 -337 -135
-52 -26 -130 -69 -174 -96 -43 -27 -80 -49 -82 -49 -2 0 -17 33 -33 73 -45
109 -94 267 -126 410 l-6 27 148 0 c82 0 250 -3 375 -7z m1363 -85 c-4 -45 -8
-84 -10 -85 -2 -2 -61 7 -132 19 -183 32 -514 31 -688 0 -66 -12 -123 -19
-127 -15 -3 5 -10 43 -13 86 l-7 77 492 0 492 0 -7 -82z m-152 -227 c65 -11
119 -21 121 -23 6 -6 -35 -252 -64 -381 -79 -350 -184 -603 -295 -705 -41 -38
-50 -42 -98 -42 -51 0 -54 2 -108 58 -115 121 -218 392 -295 772 -29 144 -50
288 -43 295 7 8 168 35 263 45 120 13 383 3 519 -19z m-944 -80 c0 -28 54
-321 75 -411 44 -183 112 -381 173 -503 32 -64 56 -117 52 -117 -20 0 -153 56
-218 92 -161 89 -344 249 -464 408 -65 87 -168 248 -168 264 0 27 261 170 430
237 102 40 120 44 120 30z m1329 -26 c50 -19 133 -55 184 -81 89 -45 254 -141
261 -153 6 -9 -94 -169 -159 -256 -167 -222 -384 -396 -601 -482 -47 -19 -88
-33 -90 -31 -2 2 22 53 52 113 92 184 182 503 231 813 9 61 20 112 24 112 4 0
48 -16 98 -35z m-1955 -432 c70 -113 176 -251 250 -323 31 -30 56 -58 56 -63
0 -27 -285 164 -411 276 l-92 81 68 63 c37 35 69 62 70 61 1 -2 28 -44 59 -95z
m2611 30 l59 -53 -35 -36 c-86 -90 -312 -254 -439 -319 -31 -16 -28 -10 32 53
37 39 86 95 109 124 46 59 164 236 181 274 13 28 16 26 93 -43z"/>
<path d="M387 2762 c-10 -10 -17 -26 -17 -34 0 -9 33 -94 73 -189 41 -96 84
-200 97 -232 25 -59 56 -81 87 -61 8 5 45 79 83 164 62 139 70 152 78 130 60
-156 108 -268 120 -282 18 -21 55 -24 69 -5 16 20 163 456 163 483 0 30 -38
51 -66 36 -13 -7 -37 -62 -74 -171 -30 -88 -57 -161 -60 -161 -3 0 -30 60 -59
133 -56 138 -73 167 -101 167 -28 0 -44 -27 -110 -180 -34 -80 -64 -146 -65
-148 -1 -2 -14 25 -28 60 -14 35 -47 113 -72 173 -56 134 -81 158 -118 117z"/>
<path d="M1282 2773 c-7 -2 -17 -14 -23 -24 -8 -16 8 -63 86 -252 54 -128 102
-238 107 -244 17 -21 56 -15 72 10 9 12 41 81 72 152 31 72 59 133 63 137 4 4
33 -59 65 -140 33 -81 63 -153 69 -159 15 -21 55 -15 71 10 8 12 49 122 91
244 79 231 82 251 39 267 -36 14 -56 -18 -114 -183 l-57 -164 -59 149 c-51
127 -64 150 -86 158 -18 6 -31 6 -40 -1 -7 -6 -42 -79 -78 -162 -36 -83 -68
-151 -71 -151 -3 0 -36 73 -73 163 -59 142 -92 199 -115 196 -3 0 -12 -3 -19
-6z"/>
<path d="M2158 2769 c-10 -5 -18 -20 -18 -32 0 -31 191 -488 207 -494 7 -3 24
-2 37 1 20 5 36 33 92 161 37 85 71 152 75 147 3 -4 32 -72 64 -152 31 -80 62
-148 68 -152 26 -17 57 -8 70 20 8 15 46 123 86 239 76 220 81 255 41 268 -42
13 -57 -10 -110 -172 -29 -87 -55 -162 -58 -167 -3 -5 -30 54 -61 131 -60 149
-73 173 -101 173 -27 0 -44 -27 -110 -178 -35 -78 -67 -139 -71 -135 -4 4 -38
80 -74 168 -75 182 -91 201 -137 174z"/>
<path d="M4136 2905 c-125 -44 -175 -200 -100 -307 42 -61 95 -88 169 -88 189
0 276 227 135 354 -59 53 -129 68 -204 41z"/>
</g>
</svg>
